<svg xmlns="http://www.w3.org/2000/svg" width="70" height="70" viewBox="0 0 70 70">
  <g id="bellcurve" transform="translate(-1169 -303)">
    <circle id="Ellipse_277" data-name="Ellipse 277" cx="35" cy="35" r="35" transform="translate(1169 303)" fill="#004b75" opacity="0.05"/>
    <g id="Group_1533" data-name="Group 1533" transform="translate(283.098 -93)">
      <path id="Path_1139" data-name="Path 1139" d="M134.373,84.99c-1.4-3.477-2.411-5.983-3.756-5.983-.878,0-1.729,1.15-2.683,3.542-4.814,12.316-8.245,14.217-10.7,14.489h-2.054V66.6a.2.2,0,0,0-.191-.192.192.192,0,0,0-.192.192V97.148a.192.192,0,0,0,.192.192v.08h31.239v-.383h-1.951c-5.048,0-7.854-6.964-9.9-12.047ZM120.809,97.037H118.75a7.56,7.56,0,0,0,2.058-1.311Zm4.822,0h-4.439V95.374a24.068,24.068,0,0,0,4.439-6.589Zm4.78,0h-4.4V88q1.127-2.338,2.3-5.309c.767-1.966,1.48-3.066,2.108-3.262Zm4.868-8.816v8.816h-4.485V79.405c1.023.261,2.051,2.8,3.227,5.719.383.977.817,2.024,1.276,3.066Zm4.78,8.816h-4.4V89.026a19.756,19.756,0,0,0,4.4,6.662Zm.383,0V96.006a6.894,6.894,0,0,0,1.786,1.031Z" transform="translate(790.104 348.593)" fill="#004c75" stroke="#004c75" stroke-width="0.5"/>
    </g>
  </g>
</svg>
