<svg xmlns="http://www.w3.org/2000/svg" width="17.105" height="18.3" viewBox="0 0 17.105 18.3">
  <g id="Group_1887" data-name="Group 1887" transform="translate(-1170.35 -309.85)">
    <path id="Path_1247" data-name="Path 1247" d="M331.606,23.767a.694.694,0,0,0,.645-.744V14.746a.652.652,0,1,0-1.29,0v8.276a.694.694,0,0,0,.645.745Z" transform="translate(847.316 295.998)" fill="#c00000" stroke="#fff" stroke-width="0.3"/>
    <path id="Path_1248" data-name="Path 1248" d="M113.421,72.136a.653.653,0,1,0-.569,1.176,7.1,7.1,0,1,1-6.164,0,.653.653,0,1,0-.569-1.176,8.393,8.393,0,1,0,7.3,0Z" transform="translate(1069.143 239.894)" fill="#c00000" stroke="#fff" stroke-width="0.3"/>
  </g>
</svg>
