<svg xmlns="http://www.w3.org/2000/svg" width="25.936" height="34.989" viewBox="0 0 25.936 34.989">
  <g id="Group_1832" data-name="Group 1832" transform="translate(-477.972 -1038)" opacity="0.9">
    <path id="Path_1232" data-name="Path 1232" d="M209.461,58.143h-6.139V57.117A1.118,1.118,0,0,0,202.2,56H191.656a1.118,1.118,0,0,0-1.117,1.117v1.026H184.4a.437.437,0,0,0-.437.437V90.552a.437.437,0,0,0,.437.438h25.061a.437.437,0,0,0,.438-.437V58.58a.437.437,0,0,0-.437-.437Zm-18.048-1.026a.243.243,0,0,1,.243-.242H202.2a.242.242,0,0,1,.242.242v3.1a1.138,1.138,0,0,1-1.137,1.137h-8.76a1.138,1.138,0,0,1-1.137-1.137Zm1.137,5.108h8.759a2.014,2.014,0,0,0,2.012-2.012v-1.2h2.788V86.753H187.75V59.018h2.788v1.2a2.014,2.014,0,0,0,2.012,2.012Zm16.472,27.89H184.837v-31.1h2.038V87.191a.437.437,0,0,0,.437.437h19.235a.437.437,0,0,0,.437-.437V59.018h2.038Z" transform="translate(294.01 982)" fill="#fff"/>
    <path id="Path_1233" data-name="Path 1233" d="M265.758,203.729a7.137,7.137,0,1,0-7.137-7.136A7.145,7.145,0,0,0,265.758,203.729Zm-3.763-2.143a3.793,3.793,0,0,1,7.583-.042,6.217,6.217,0,0,1-7.583.042Zm1.661-6.716A2.132,2.132,0,1,1,265.787,197,2.134,2.134,0,0,1,263.655,194.87Zm2.1-4.539a6.251,6.251,0,0,1,4.617,10.477,4.682,4.682,0,0,0-2.869-3.475,3.006,3.006,0,1,0-3.437,0,4.681,4.681,0,0,0-2.878,3.53,6.252,6.252,0,0,1,4.567-10.532Z" transform="translate(225.182 858.967)" fill="#fff"/>
  </g>
</svg>
