<svg xmlns="http://www.w3.org/2000/svg" width="70" height="70" viewBox="0 0 70 70">
  <g id="pa-notification" transform="translate(-765 -439)">
    <circle id="Ellipse_295" data-name="Ellipse 295" cx="35" cy="35" r="35" transform="translate(765 439)" fill="#004b75" opacity="0.05"/>
    <g id="Group_1587" data-name="Group 1587" transform="translate(362.887 1)">
      <g id="Group_1586" data-name="Group 1586" transform="translate(-160 -140)">
        <path id="Path_1151" data-name="Path 1151" d="M167.069,77.3V69.767a10.882,10.882,0,0,0-7.642-10.359c0-.036.036-.073.036-.145a3.26,3.26,0,1,0-6.519,0,.274.274,0,0,0,.036.145,10.882,10.882,0,0,0-7.642,10.359V77.3A3.983,3.983,0,0,0,142.8,81v.362h9.453a3.963,3.963,0,0,0,7.9,0H169.6v-.362a3.946,3.946,0,0,0-2.535-3.694ZM156.2,56.728a2.553,2.553,0,0,1,2.535,2.463,11.567,11.567,0,0,0-2.535-.29,11.824,11.824,0,0,0-2.535.29A2.553,2.553,0,0,1,156.2,56.728ZM146.062,69.767a10.142,10.142,0,0,1,20.283,0v7.316a4.469,4.469,0,0,0-.724-.073H146.786a4.438,4.438,0,0,0-.724.073ZM156.2,84.255a3.254,3.254,0,0,1-3.224-2.9h6.483a3.316,3.316,0,0,1-3.26,2.9Zm-12.641-3.622a3.254,3.254,0,0,1,3.224-2.9h18.834a3.254,3.254,0,0,1,3.224,2.9Z" transform="translate(441.388 542.996)" fill="#004c75" stroke="#004c75" stroke-width="0.3"/>
        <path id="Path_1152" data-name="Path 1152" d="M488.51,86.118a15.874,15.874,0,0,0-2.246-1.883.367.367,0,1,0-.4.616A11.357,11.357,0,0,1,488,86.625a13.752,13.752,0,0,1,2.716,4.2.348.348,0,0,0,.326.217.218.218,0,0,0,.145-.036.332.332,0,0,0,.181-.471,14.078,14.078,0,0,0-2.861-4.419Z" transform="translate(120.672 516.648)" fill="#004c75" stroke="#004c75" stroke-width="0.3"/>
        <path id="Path_1153" data-name="Path 1153" d="M131.663,84.853a.367.367,0,1,0-.4-.616,13.757,13.757,0,0,0-5.107,6.3.359.359,0,0,0,.181.471.219.219,0,0,0,.145.036.317.317,0,0,0,.326-.217,13.443,13.443,0,0,1,4.853-5.976Z" transform="translate(456.982 516.646)" fill="#004c75" stroke="#004c75" stroke-width="0.3"/>
      </g>
    </g>
  </g>
</svg>
