<svg xmlns="http://www.w3.org/2000/svg" width="37.045" height="34.837" viewBox="0 0 37.045 34.837">
  <g id="Group_1825" data-name="Group 1825" transform="translate(0 0)" opacity="0.9">
    <path id="Path_1219" data-name="Path 1219" d="M300.056,22.281a2.742,2.742,0,0,0,2.534,2.216h.053a2.807,2.807,0,0,0,2.633-2.213,1.623,1.623,0,0,0,.7-.936,1.752,1.752,0,0,0-.138-1.176v-.384c0-.12,0-.232,0-.337a2.525,2.525,0,0,0-1.353-2.363,2.968,2.968,0,0,0-3.734.573,1.214,1.214,0,0,0-.646.278,2.206,2.206,0,0,0-.595,1.834v.4a1.75,1.75,0,0,0-.138,1.176,1.624,1.624,0,0,0,.692.933Zm.357-1.723a.493.493,0,0,0,.075-.261l0-.537c-.022-.742.155-.986.233-1.056a.248.248,0,0,1,.165-.067.49.49,0,0,0,.511-.21,1.948,1.948,0,0,1,2.649-.452,1.547,1.547,0,0,1,.8,1.458c0,.014,0,.029,0,.043,0,.088,0,.182,0,.3l0,.521a.507.507,0,0,0,.073.257.811.811,0,0,1,.095.551.76.76,0,0,1-.408.434.5.5,0,0,0-.247.336c-.014.067-.348,1.637-1.684,1.637h-.066c-1.311,0-1.621-1.563-1.634-1.629a.5.5,0,0,0-.249-.343.762.762,0,0,1-.408-.434.806.806,0,0,1,.092-.547Z" transform="translate(-284.145 -16.684)" fill="#fff"/>
    <path id="Path_1220" data-name="Path 1220" d="M107.034,99.973c0-2.007-4.107-3.307-8.867-4,2.886-3.866,4.867-7.67,3.441-9.1-1.722-1.721-6.583,1.514-9.479,3.72a9.269,9.269,0,0,0-1.806-.423.456.456,0,0,0-.387.119.491.491,0,0,0-.167.368,2.336,2.336,0,0,1-.9,1.845l-.354.277-.354-.277a2.338,2.338,0,0,1-.9-1.845.491.491,0,0,0-.167-.368.456.456,0,0,0-.387-.119,9.327,9.327,0,0,0-1.807.423c-2.9-2.206-7.763-5.435-9.479-3.722-1.426,1.426.555,5.231,3.441,9.1-4.759.694-8.867,1.994-8.867,4s4.1,3.306,8.867,4c-2.885,3.865-4.867,7.671-3.442,9.1a1.805,1.805,0,0,0,1.33.478c2.271,0,6-2.561,8.256-4.281v5.347a1.993,1.993,0,0,0,3.511,1.3,1.993,1.993,0,0,0,3.51-1.3v-5.348c2.252,1.72,5.986,4.283,8.257,4.282a1.808,1.808,0,0,0,1.33-.478c1.425-1.426-.558-5.233-3.442-9.1,4.76-.694,8.868-2,8.868-4Zm-6.124-12.4c.755.755-.573,3.926-3.865,8.248-.761-.094-1.53-.174-2.3-.239V93.52a2.722,2.722,0,0,0-1.579-2.457c4.4-3.274,7.1-4.136,7.741-3.489ZM96.338,96.73c-.493.619-1.021,1.257-1.589,1.913v-2.07q.823.071,1.589.156ZM76.113,87.574c.647-.647,3.341.216,7.741,3.488a2.711,2.711,0,0,0-1.578,2.446v2.076c-.767.065-1.535.144-2.3.238-3.293-4.322-4.621-7.493-3.866-8.248Zm6.163,9v2.07c-.568-.657-1.1-1.294-1.589-1.914q.766-.085,1.589-.156Zm-11.3,3.4c0-1.039,2.985-2.362,8.564-3.1.827,1.06,1.7,2.11,2.588,3.1-.883.995-1.76,2.044-2.588,3.1-5.579-.742-8.565-2.063-8.565-3.1Zm11.3,1.329v2.071q-.824-.071-1.59-.156c.494-.62,1.021-1.258,1.59-1.915ZM85,108.016c-5.425,4.278-8.288,4.959-8.889,4.356-.754-.755.574-3.926,3.865-8.248.834.1,1.677.189,2.516.258a1.851,1.851,0,0,0,1.637,1,1.832,1.832,0,0,0,.87-.227Zm6.529-11.8a.494.494,0,0,0-.493.494v17.907a1.016,1.016,0,0,1-2.031,0v-9.673a.493.493,0,1,0-.986,0v9.673a1.016,1.016,0,0,1-2.032,0V96.707a.493.493,0,1,0-.986,0v6.818a.87.87,0,0,1-1.74,0V93.495c-.037-1.477,2.045-2.063,3.058-2.261a3.315,3.315,0,0,0,1.231,2.05l.658.514a.493.493,0,0,0,.608,0l.658-.514a3.318,3.318,0,0,0,1.231-2.05c1.013.2,3.094.788,3.057,2.272v10.019a.87.87,0,0,1-1.74,0V96.707a.494.494,0,0,0-.493-.494Zm9.382,16.16c-.6.6-3.459-.079-8.888-4.358v-2.859a1.83,1.83,0,0,0,.87.227,1.852,1.852,0,0,0,1.638-1c.839-.068,1.682-.154,2.515-.257,3.291,4.322,4.619,7.495,3.865,8.249ZM94.75,101.3c.568.657,1.1,1.295,1.589,1.914q-.766.086-1.589.156Zm2.734,1.775c-.827-1.061-1.7-2.11-2.587-3.1.883-.995,1.761-2.044,2.588-3.1,5.579.742,8.563,2.065,8.563,3.1s-2.984,2.362-8.563,3.1Z" transform="translate(-69.989 -81.78)" fill="#fff"/>
  </g>
</svg>
