<svg xmlns="http://www.w3.org/2000/svg" width="22.026" height="19.812" viewBox="0 0 22.026 19.812">
  <g id="Group_1584" data-name="Group 1584" transform="translate(-1076.974 -1033)">
    <path id="Path_542" data-name="Path 542" d="M361.673,294.3a.55.55,0,0,0-.39.919l7.445,8.439H349.044a.55.55,0,1,0-.023,1.1h19.708l-7.445,8.439a.551.551,0,1,0,.83.726l8.252-9.352a.55.55,0,0,0-.037-.777.277.277,0,0,0-.024-.02l-8.191-9.282A.55.55,0,0,0,361.673,294.3Z" transform="translate(728.492 738.705)" fill="#3c8bb5"/>
  </g>
</svg>
