<svg xmlns="http://www.w3.org/2000/svg" width="14.458" height="15.154" viewBox="0 0 14.458 15.154">
  <g id="Group_1583" data-name="Group 1583" transform="translate(-155.251 -726.379)">
    <path id="attach_1_" data-name="attach (1)" d="M15.557,5.638a.293.293,0,0,0-.415,0L7.129,13.651A3.14,3.14,0,0,1,2.688,9.21L10.7,1.2a2.153,2.153,0,0,1,3.106.121,2.153,2.153,0,0,1,.122,3.106L6.4,11.951a1.08,1.08,0,0,1-1.527-1.527l5.1-5.1a.294.294,0,0,0-.415-.415l-5.1,5.1a1.667,1.667,0,0,0,2.358,2.358l7.527-7.527A2.726,2.726,0,0,0,14.222.9,2.726,2.726,0,0,0,10.286.781L2.273,8.794a3.728,3.728,0,0,0,5.272,5.272l8.012-8.013A.293.293,0,0,0,15.557,5.638Z" transform="translate(154.066 726.38)"/>
  </g>
</svg>
