<svg xmlns="http://www.w3.org/2000/svg" width="33.329" height="35.368" viewBox="0 0 33.329 35.368">
  <g id="Group_1606" data-name="Group 1606" transform="translate(-813.8 -458.223)">
    <g id="Group_1605" data-name="Group 1605">
      <g id="Group_464" data-name="Group 464" transform="translate(814 458.609)">
        <path id="Path_558" data-name="Path 558" d="M36.554,7.406A31.011,31.011,0,0,1,6.425,31.187a.375.375,0,1,0,0,.749A31.768,31.768,0,0,0,37.228,7.81L37,6.96Z" transform="translate(-6.05 -5.514)" fill="#3c8bb5" stroke="#3c8bb5" stroke-width="0.4"/>
        <path id="Path_559" data-name="Path 559" d="M37.778,56.353h-.865V34.2a.375.375,0,1,0-.749,0V56.353h-4.9V41.886a.375.375,0,0,0-.749,0V56.35h-4.9V45.927a.375.375,0,0,0-.749,0V56.353h-4.9V48.421a.375.375,0,1,0-.749,0v7.932h-4.9V49.886a.375.375,0,1,0-.749,0v6.468h-4.9v-5.8a.375.375,0,1,0-.749,0v5.8H6.435a.375.375,0,1,0,0,.749H37.778a.375.375,0,1,0,0-.749Z" transform="translate(-6.056 -22.321)" fill="#3c8bb5" stroke="#3c8bb5" stroke-width="0.4"/>
        <path id="Path_560" data-name="Path 560" d="M83.957,8.954,82.392,3.1,78.107,7.381a.373.373,0,0,0,.528.528L81.56,4.988c.1-.412.187-.824.27-1.24a.374.374,0,0,1,.734.142c-.1.506-.21,1-.333,1.5l1,3.753a.372.372,0,0,0,.363.277.432.432,0,0,0,.1-.011A.373.373,0,0,0,83.957,8.954Z" transform="translate(-51.052 -3.1)" fill="#3c8bb5" stroke="#3c8bb5" stroke-width="0.4"/>
      </g>
    </g>
  </g>
</svg>
