<svg xmlns="http://www.w3.org/2000/svg" width="29.203" height="35.181" viewBox="0 0 29.203 35.181">
  <g id="Group_1604" data-name="Group 1604" transform="translate(-571.799 -460.409)">
    <g id="Group_547" data-name="Group 547" transform="translate(-242.005 230.609)">
      <path id="Path_601" data-name="Path 601" d="M44.336,14.673A7.337,7.337,0,1,0,37,7.337a7.337,7.337,0,0,0,7.337,7.337Zm0-13.586a6.25,6.25,0,1,1-6.25,6.25,6.25,6.25,0,0,1,6.25-6.25Z" transform="translate(784.069 230)" fill="#3c8bb5" stroke="#3c8bb5" stroke-width="0.4"/>
      <path id="Path_602" data-name="Path 602" d="M12.091,65.337l.96-7.808a2.182,2.182,0,0,1,1.873-1.89l5.5-.753L22.7,57.84a2.06,2.06,0,0,1,.719-.847l-1.986-2.57a1.635,1.635,0,0,0,.439-.732,8.413,8.413,0,0,1-.987-.541l-.048.221a.549.549,0,0,1-.461.424l-5.605.768a3.271,3.271,0,0,0-2.8,2.834l-.96,7.808a1.1,1.1,0,0,0,1.082,1.219h4.345V65.338Z" transform="translate(803 191.293)" fill="#3c8bb5" stroke="#3c8bb5" stroke-width="0.4"/>
      <path id="Path_603" data-name="Path 603" d="M83.7,65.2l-.96-7.808a3.271,3.271,0,0,0-2.8-2.834L74.335,53.8a.548.548,0,0,1-.461-.424l-.048-.221a8.416,8.416,0,0,1-.987.541,1.635,1.635,0,0,0,.439.732l-1.986,2.57a2.06,2.06,0,0,1,.719.847l2.282-2.953,5.5.753a2.182,2.182,0,0,1,1.873,1.89l.957,7.807H78.277v1.087h4.345A1.1,1.1,0,0,0,83.7,65.2Z" transform="translate(759.095 191.293)" fill="#3c8bb5" stroke="#3c8bb5" stroke-width="0.4"/>
      <path id="Path_604" data-name="Path 604" d="M49.8,76.079h-.544a6.546,6.546,0,0,0-.594-1.431l.385-.385a.964.964,0,0,0,0-1.361l-1.186-1.186a.986.986,0,0,0-1.361,0l-.386.386a6.547,6.547,0,0,0-1.431-.594v-.544A.964.964,0,0,0,43.718,70H42.041a.964.964,0,0,0-.963.963v.544a6.547,6.547,0,0,0-1.431.594l-.385-.385a.986.986,0,0,0-1.362,0L36.715,72.9a.964.964,0,0,0,0,1.361l.385.385a6.546,6.546,0,0,0-.594,1.431h-.544a.964.964,0,0,0-.963.963v1.677a.964.964,0,0,0,.963.963h.544a6.546,6.546,0,0,0,.594,1.431l-.385.385a.963.963,0,0,0,0,1.361L37.9,84.045a.986.986,0,0,0,1.361,0l.386-.386a6.547,6.547,0,0,0,1.431.594V84.8a.964.964,0,0,0,.963.963h1.677a.964.964,0,0,0,.963-.963v-.544a6.547,6.547,0,0,0,1.431-.594l.385.385a.985.985,0,0,0,1.362,0l1.186-1.186a.964.964,0,0,0,0-1.361l-.385-.385a6.546,6.546,0,0,0,.594-1.431H49.8a.964.964,0,0,0,.963-.963V77.042A.964.964,0,0,0,49.8,76.079Zm-.124,2.515h-.845a.544.544,0,0,0-.532.431,5.489,5.489,0,0,1-.777,1.873.543.543,0,0,0,.071.681l.6.6-1.01,1.01-.6-.6a.543.543,0,0,0-.681-.071,5.478,5.478,0,0,1-1.873.777.544.544,0,0,0-.431.532v.845H42.165v-.845a.544.544,0,0,0-.431-.532,5.478,5.478,0,0,1-1.873-.777.543.543,0,0,0-.681.071l-.6.6-1.01-1.01.6-.6a.543.543,0,0,0,.071-.681,5.489,5.489,0,0,1-.777-1.873.544.544,0,0,0-.532-.431h-.845V77.166h.845a.544.544,0,0,0,.532-.431,5.489,5.489,0,0,1,.777-1.873.543.543,0,0,0-.071-.681l-.6-.6,1.01-1.01.6.6a.544.544,0,0,0,.681.071,5.478,5.478,0,0,1,1.873-.777.544.544,0,0,0,.431-.532v-.845h1.429v.845a.544.544,0,0,0,.431.532,5.478,5.478,0,0,1,1.873.777.544.544,0,0,0,.681-.071l.6-.6,1.01,1.01-.6.6a.543.543,0,0,0-.071.681,5.489,5.489,0,0,1,.777,1.873.544.544,0,0,0,.532.431h.845Z" transform="translate(785.526 179.021)" fill="#3c8bb5" stroke="#3c8bb5" stroke-width="0.4"/>
      <path id="Path_605" data-name="Path 605" d="M53.8,85a3.8,3.8,0,1,0,3.8,3.8A3.8,3.8,0,0,0,53.8,85Zm0,6.521A2.717,2.717,0,1,1,56.522,88.8,2.717,2.717,0,0,1,53.8,91.521Z" transform="translate(774.601 168.097)" fill="#3c8bb5" stroke="#3c8bb5" stroke-width="0.4"/>
    </g>
  </g>
</svg>
