<svg xmlns="http://www.w3.org/2000/svg" width="18.53" height="18.089" viewBox="0 0 18.53 18.089">
  <path id="noun-like-733268" d="M130.532,46.554a2.531,2.531,0,0,1-.615,1.648,2.082,2.082,0,0,1,.048.456,2.452,2.452,0,0,1-2.472,2.458h-3.419a14.366,14.366,0,0,1,.472,2.676v-.379c0,.93.127,2.865-.807,3.8a1.57,1.57,0,0,1-1.2.534,1.8,1.8,0,0,1-1.79-1.636l-.007-1.918-2.254-4.116a2.218,2.218,0,0,1-.995-.587,1.687,1.687,0,0,1-1.276.53h-2.4A1.808,1.808,0,0,1,112,48.172V41.695a1.973,1.973,0,0,1,1.813-2.033h2.4a1.726,1.726,0,0,1,1.266.564,1.885,1.885,0,0,1,1.206-.564h7.747a2.573,2.573,0,0,1,2.473,2.594v.054a2.838,2.838,0,0,1,1.086,2.1,2.56,2.56,0,0,1-.066.5,2.514,2.514,0,0,1,.6,1.648ZM116.91,41.6a.79.79,0,0,0-.709-.852h-2.4a.79.79,0,0,0-.709.852v6.477a.791.791,0,0,0,.709.852h2.4a.791.791,0,0,0,.708-.852Zm11.678,3.649a1.427,1.427,0,0,0,.284-.848A1.4,1.4,0,0,0,127.544,43a1.6,1.6,0,0,0,.21-.788,1.436,1.436,0,0,0-1.378-1.458h-7.091c-1.2,0-1.283.731-1.283.943v6.477c0,.233.077.851,1.091.851l2.727,4.917v2.011a.673.673,0,0,0,.664.708.591.591,0,0,0,.479-.213c.614-.617.493-2.307.493-3.029v.373a19.369,19.369,0,0,0-.864-3.767h4.9a1.361,1.361,0,0,0,1.1-2.193,1.408,1.408,0,0,0,0-2.578Z" transform="translate(-112.002 -39.661)" fill="#333"/>
</svg>
