<svg xmlns="http://www.w3.org/2000/svg" width="18.677" height="18.089" viewBox="0 0 18.677 18.089">
  <path id="noun-like-733268" d="M130.679,50.858a2.519,2.519,0,0,0-.619-1.648,2.066,2.066,0,0,0,.048-.456,2.462,2.462,0,0,0-2.492-2.458H124.17a14.262,14.262,0,0,0,.476-2.676V44c0-.93.128-2.865-.813-3.8a1.588,1.588,0,0,0-1.211-.534,1.808,1.808,0,0,0-1.8,1.636l-.007,1.918-2.272,4.116a2.239,2.239,0,0,0-1,.587,1.707,1.707,0,0,0-1.286-.53h-2.42A1.815,1.815,0,0,0,112,49.24v6.478a1.979,1.979,0,0,0,1.828,2.033h2.42a1.746,1.746,0,0,0,1.276-.564,1.906,1.906,0,0,0,1.216.564h7.809a2.582,2.582,0,0,0,2.493-2.594V55.1a2.832,2.832,0,0,0,1.095-2.1,2.543,2.543,0,0,0-.067-.5,2.5,2.5,0,0,0,.608-1.648Zm-13.729,4.949a.792.792,0,0,1-.714.852h-2.42a.792.792,0,0,1-.714-.852V49.331a.793.793,0,0,1,.714-.852h2.42a.793.793,0,0,1,.714.852Zm11.771-3.649a1.42,1.42,0,0,1,.286.848,1.4,1.4,0,0,1-1.339,1.407,1.586,1.586,0,0,1,.212.788,1.441,1.441,0,0,1-1.389,1.458h-7.148c-1.21,0-1.293-.731-1.293-.943V49.24c0-.233.077-.851,1.1-.851l2.749-4.917V41.46a.675.675,0,0,1,.67-.708.6.6,0,0,1,.483.213c.618.617.5,2.307.5,3.029v-.373a19.239,19.239,0,0,1-.871,3.767h4.94a1.359,1.359,0,0,1,1.1,2.193,1.4,1.4,0,0,1,0,2.578Z" transform="translate(-112.002 -39.661)" fill="#333"/>
</svg>
