<svg xmlns="http://www.w3.org/2000/svg" width="22.026" height="19.812" viewBox="0 0 22.026 19.812">
  <g id="Group_1604" data-name="Group 1604" transform="translate(-584 -892.527)">
    <g id="Group_472" data-name="Group 472" transform="translate(584 892.527)">
      <path id="Path_542" data-name="Path 542" d="M357.316,294.3a.55.55,0,0,1,.39.919l-7.445,8.439h19.684a.55.55,0,1,1,.023,1.1H350.261l7.445,8.439a.551.551,0,1,1-.83.726l-8.252-9.352a.55.55,0,0,1,.037-.777.277.277,0,0,1,.024-.02l8.191-9.282A.55.55,0,0,1,357.316,294.3Z" transform="translate(-348.482 -294.295)" fill="#3c8bb5"/>
    </g>
  </g>
</svg>
