<svg xmlns="http://www.w3.org/2000/svg" width="35.615" height="35.589" viewBox="0 0 35.615 35.589">
  <g id="Group_1603" data-name="Group 1603" transform="translate(-344.049 -457.629)">
    <g id="Group_546" data-name="Group 546" transform="translate(-292 230)">
      <g id="Group_545" data-name="Group 545" transform="translate(636.402 227.98)">
        <path id="Path_600" data-name="Path 600" d="M24.327,6.964a.406.406,0,0,0-.355.418v4.055a.406.406,0,1,0,.811,0V7.382a.406.406,0,0,0-.456-.418ZM10.578,11.019a.406.406,0,0,0-.241.735l3.649,2.838a.411.411,0,1,0,.507-.646l-3.649-2.838A.406.406,0,0,0,10.578,11.019Zm27.548,0a.406.406,0,0,0-.215.089l-3.649,2.838a.411.411,0,0,0,.507.646l3.649-2.838a.406.406,0,0,0-.291-.735ZM23.567,13.87A9.719,9.719,0,0,0,13.835,23.6a10.266,10.266,0,0,0,6.488,9.592v3.789a2.841,2.841,0,0,0,2.838,2.838v1.216a.818.818,0,0,0,.811.811h.811a.818.818,0,0,0,.811-.811V39.821a2.841,2.841,0,0,0,2.838-2.838V33.194A10.266,10.266,0,0,0,34.92,23.6a9.719,9.719,0,0,0-9.732-9.732Zm0,.811h1.622A8.892,8.892,0,0,1,34.109,23.6,9.5,9.5,0,0,1,27.9,32.548a.406.406,0,0,0-.279.38v1.216a1.383,1.383,0,0,1-.558,1.191,2.418,2.418,0,0,1-1.47.431H23.161a2.418,2.418,0,0,1-1.47-.431,1.383,1.383,0,0,1-.558-1.191V32.928a.406.406,0,0,0-.279-.38A9.5,9.5,0,0,1,14.646,23.6,8.892,8.892,0,0,1,23.567,14.681ZM7.271,23.2a.407.407,0,0,0,.076.811H11.4a.406.406,0,1,0,0-.811H7.347A.406.406,0,0,0,7.271,23.2Zm30.006,0a.407.407,0,1,0,.076.811h4.055a.406.406,0,1,0,0-.811H37.353A.406.406,0,0,0,37.277,23.2ZM21.134,35.931l.063.051a3.187,3.187,0,0,0,1.964.6h2.433a3.187,3.187,0,0,0,1.964-.6l.063-.051v1.052a2.014,2.014,0,0,1-2.027,2.027H23.161a2.014,2.014,0,0,1-2.027-2.027Zm2.838,3.89h.811v1.216h-.811Z" transform="translate(-6.902 -6.961)" fill="#3c8bb5" stroke="#3c8bb5" stroke-width="0.7"/>
      </g>
    </g>
  </g>
</svg>
