<svg xmlns="http://www.w3.org/2000/svg" width="14.596" height="14.596" viewBox="0 0 14.596 14.596">
  <g id="info-icon" transform="translate(-672.817 -589)">
    <path id="Path_1166" data-name="Path 1166" d="M371.5,116.143a.715.715,0,1,0,.434.333A.715.715,0,0,0,371.5,116.143Z" transform="translate(310.109 475.434)" fill="#52c8f8"/>
    <path id="Path_1167" data-name="Path 1167" d="M283.625,193.741l-.011,0c-.675.243-1.537.775-1.347.063l1.306-4.873c.182-.678-.824-.647-1.451-.389a9.133,9.133,0,0,0-2.017,1.408h0a.267.267,0,0,0,.252.456l.011,0c.675-.243,1.537-.775,1.347-.063l-1.306,4.873c-.182.678.824.647,1.451.389a9.134,9.134,0,0,0,2.017-1.408.267.267,0,0,0-.253-.456Z" transform="translate(398.074 405.268)" fill="#52c8f8"/>
    <path id="Path_1168" data-name="Path 1168" d="M105.3,28a7.3,7.3,0,1,0,3.649.978A7.3,7.3,0,0,0,105.3,28Zm0,13.785a6.494,6.494,0,1,1,4.585-1.9,6.487,6.487,0,0,1-4.585,1.9Z" transform="translate(574.816 561.001)" fill="#52c8f8"/>
  </g>
</svg>
