<svg xmlns="http://www.w3.org/2000/svg" width="1" height="124" viewBox="0 0 1 124">
  <g id="Group_1603" data-name="Group 1603" transform="translate(-767 -157)">
    <g id="Path_1166" data-name="Path 1166" transform="translate(767 157)" fill="none" stroke-dasharray="11 9">
      <path d="M0,0H1V124H0Z" stroke="none"/>
      <path d="M 0 119 L 1 119 C 1 119 1 124 1 124 L 0 124 L 0 119 Z M 0 99 L 1 99 C 1 99 1 110 1 110 L 0 110 L 0 99 Z M 0 79 L 1 79 C 1 79 1 90 1 90 L 0 90 L 0 79 Z M 0 59 L 1 59 C 1 59 1 70 1 70 L 0 70 L 0 59 Z M 0 39 L 1 39 C 1 39 1 50 1 50 L 0 50 L 0 39 Z M 0 19 L 1 19 C 1 19 1 30 1 30 L 0 30 L 0 19 Z M 0 0 L 1 0 L 1 1 C 1 3.532630920410156 1 10 1 10 L 0 10 L 0 0 Z" stroke="none" fill="#d2d2d2"/>
    </g>
  </g>
</svg>
