<svg xmlns="http://www.w3.org/2000/svg" width="23.518" height="15.106" viewBox="0 0 23.518 15.106">
  <g id="Group_1604" data-name="Group 1604" transform="translate(-1043.778 -784.447)">
    <g id="view_2_" data-name="view (2)" transform="translate(1044 691.812)">
      <g id="Group_639" data-name="Group 639" transform="translate(0 92.835)">
        <g id="Group_638" data-name="Group 638" transform="translate(0 0)">
          <path id="Path_837" data-name="Path 837" d="M22.927,99.739c-.206-.282-5.118-6.9-11.39-6.9S.352,99.457.146,99.739a.761.761,0,0,0,0,.9c.206.282,5.118,6.9,11.39,6.9s11.184-6.623,11.39-6.9A.761.761,0,0,0,22.927,99.739Zm-11.39,6.281c-4.621,0-8.623-4.4-9.807-5.832,1.183-1.438,5.177-5.831,9.807-5.831s8.622,4.395,9.807,5.832C20.161,101.627,16.167,106.02,11.537,106.02Z" transform="translate(0 -92.835)" fill="#004c75" stroke="#fff" stroke-width="0.4"/>
        </g>
      </g>
      <g id="Group_641" data-name="Group 641" transform="translate(6.973 95.624)">
        <g id="Group_640" data-name="Group 640" transform="translate(0 0)">
          <path id="Path_838" data-name="Path 838" d="M159.286,154.725a4.564,4.564,0,1,0,4.564,4.564A4.569,4.569,0,0,0,159.286,154.725Zm0,7.607a3.043,3.043,0,1,1,3.043-3.043A3.046,3.046,0,0,1,159.286,162.332Z" transform="translate(-154.722 -154.725)" fill="#004c75" stroke="#fff" stroke-width="0.4"/>
        </g>
      </g>
    </g>
  </g>
</svg>
