<svg xmlns="http://www.w3.org/2000/svg" width="18.687" height="16.403" viewBox="0 0 18.687 16.403">
  <g id="Group_1605" data-name="Group 1605" transform="translate(-10.698 -13.279)">
    <path id="Path_842" data-name="Path 842" d="M19.882,18.352a.648.648,0,0,1-.916.016L16.154,15.65V26.675a.648.648,0,1,1-1.3,0V15.65l-2.812,2.719a.648.648,0,1,1-.9-.932l3.9-3.771h0l.008-.007.006,0a.644.644,0,0,1,.189-.126h0a.042.042,0,0,0,.015-.005l.017-.005a.648.648,0,0,1,.2-.04h.038a.642.642,0,0,1,.2.04.043.043,0,0,1,.016,0l.015,0h0a.648.648,0,0,1,.188.125l.006,0,.008.007h0l3.9,3.771a.648.648,0,0,1,.018.917Zm9.071,6.254a.648.648,0,0,0-.916-.016l-2.812,2.717V16.283a.648.648,0,0,0-1.3,0V27.308l-2.812-2.719a.648.648,0,1,0-.9.932l3.9,3.771h0l.008.007s0,0,.006,0a.637.637,0,0,0,.067.055c.005,0,.009.009.014.012a.635.635,0,0,0,.112.06l.009,0,.011,0,.038.012a.538.538,0,0,0,.063.019.641.641,0,0,0,.257,0,.688.688,0,0,0,.072-.022l.03-.009.012,0,.009,0a.642.642,0,0,0,.113-.06l.009-.007a.74.74,0,0,0,.073-.06l.006,0,.008-.007h0l3.9-3.771a.648.648,0,0,0,.016-.915Z" fill="#004c75" stroke="#fff" stroke-width="0.4"/>
  </g>
</svg>
