<svg xmlns="http://www.w3.org/2000/svg" width="22" height="22.55" viewBox="0 0 22 22.55">
  <path id="command" d="M21.111,30.422a2.573,2.573,0,0,0-1.537-2.387h0a2.483,2.483,0,0,1-.4-.281,4.684,4.684,0,0,1-.785-.833A4.821,4.821,0,0,1,17.444,24c0-2.985,3.223-6.426,8.556-6.426a10.3,10.3,0,0,1,6.322,1.9A5.516,5.516,0,0,1,34.556,24a4.907,4.907,0,0,1-1.925,4.048,9.677,9.677,0,0,1-6.019,1.735,2.363,2.363,0,0,0-1.391.457l-4.109,2.991ZM21.049,36.4l.062-.045,5.5-4C32.722,32.35,37,29.137,37,24c0-5.575-4.925-9-11-9s-11,4.028-11,9a7.164,7.164,0,0,0,3.667,6.426v6.484a.61.61,0,0,0,.959.528l.726-.528Zm1.285-11.117A1.287,1.287,0,1,0,21.111,24,1.255,1.255,0,0,0,22.333,25.281ZM27.222,24A1.224,1.224,0,1,1,26,22.711,1.255,1.255,0,0,1,27.222,24Zm2.444,1.285A1.287,1.287,0,1,0,28.444,24,1.255,1.255,0,0,0,29.667,25.281Z" transform="translate(-15 -15)" fill="#52c8f8" fill-rule="evenodd"/>
</svg>
