<svg xmlns="http://www.w3.org/2000/svg" width="19.421" height="19.421" viewBox="0 0 19.421 19.421">
  <g id="copy" transform="translate(-10.35 -10.35)">
    <path id="Path_903" data-name="Path 903" d="M28.954,13.835H26.286V11.167a.667.667,0,0,0-.667-.667H11.167a.667.667,0,0,0-.667.667v14.47a.667.667,0,0,0,.667.649h2.668v2.668a.667.667,0,0,0,.667.667H28.954a.667.667,0,0,0,.667-.667V14.484A.667.667,0,0,0,28.954,13.835ZM11.834,24.952V11.834H24.952v2H14.484a.671.671,0,0,0-.667.667v10.45Zm16.453,3.317H15.169v-13.1H28.287Z" fill="#333" stroke="#fff" stroke-width="0.3"/>
  </g>
</svg>
