<svg xmlns="http://www.w3.org/2000/svg" width="14.713" height="14.706" viewBox="0 0 14.713 14.706">
  <g id="Group_1612" data-name="Group 1612" transform="translate(-1084 -886.087)">
    <path id="Path_839" data-name="Path 839" d="M7.347,0A.525.525,0,0,0,6.83.525V.533h0V9.764l-3.3-3.3a.525.525,0,1,0-.742.743l4.2,4.2.006.005h0l.016.015h0l.022.019h0l.014.01h0l.025.017h0l.019.011h0l.022.012h0l.019.009h0l.021.01h0l.023.008h0l.018.006h0l.023.006h0l.022,0h0l.023,0h0l.025,0h.054l.047,0h0l.036-.006h0l.029-.006h0l.023-.006h0l.035-.011h0l.023-.008h0l.031-.013h0l.043-.021h0l0,0h0l.032-.02h0l.022-.015h0l.034-.028h0l0,0h0l.024-.022,4.2-4.2a.525.525,0,0,0-.366-.9h-.015a.524.524,0,0,0-.361.158h0l-3.3,3.3V.527A.525.525,0,0,0,7.355,0H7.347ZM.53,13.656H.523a.525.525,0,1,0,0,1.05H14.186a.525.525,0,1,0,0-1.05H.53Z" transform="translate(1084.002 886.087)" fill="#004c75"/>
  </g>
</svg>
