<svg xmlns="http://www.w3.org/2000/svg" width="70" height="70" viewBox="0 0 70 70">
  <g id="feedback" transform="translate(-765 -575)">
    <circle id="Ellipse_301" data-name="Ellipse 301" cx="35" cy="35" r="35" transform="translate(765 575)" fill="#004b75" opacity="0.05"/>
    <g id="Group_1631" data-name="Group 1631" transform="translate(-109.127 20)">
      <g id="Group_1630" data-name="Group 1630" transform="translate(892.127 575)">
        <path id="Path_1163" data-name="Path 1163" d="M91.612,54.266H116.9a4.559,4.559,0,0,1,4.547,4.547V73.02a4.559,4.559,0,0,1-4.547,4.547h-6.045l-6.6,6.216-6.6-6.216H91.61a4.558,4.558,0,0,1-4.547-4.547V58.813a4.559,4.559,0,0,1,4.547-4.547Zm26.135,9.314-10.866,6.18-4.766-1.31,1.31-4.766,10.865-6.18,3.457,6.077Zm-2.2-.605-1.859-3.267L104.8,64.759l-.7,2.563,2.563.7,8.881-5.051ZM92.605,59.284h7.522V60.9H92.605Zm0,6.254h4.967v1.621H92.605Zm0,6.254h16.132v1.621H92.605Zm24.291-15.9H91.612a2.938,2.938,0,0,0-2.927,2.926V73.022a2.938,2.938,0,0,0,2.927,2.927h6.682l5.96,5.615,5.96-5.615H116.9a2.938,2.938,0,0,0,2.927-2.927V58.815a2.937,2.937,0,0,0-2.927-2.926Z" transform="translate(-87.063 -54.266)" fill="#004c75" stroke="#f2f6f8" stroke-width="0.6"/>
      </g>
    </g>
  </g>
</svg>
