<svg xmlns="http://www.w3.org/2000/svg" width="20.522" height="18.775" viewBox="0 0 20.522 18.775">
  <g id="Group_1711" data-name="Group 1711" transform="translate(-334.12 -317.5)">
    <path id="Path_1199" data-name="Path 1199" d="M237.173,167.988v-7.731a.655.655,0,0,0-1.31,0v7.732a2.4,2.4,0,0,0,0,4.622v5.112a.655.655,0,0,0,1.31,0V172.61a2.4,2.4,0,0,0,0-4.622Zm-7.859-6.549v-1.182a.655.655,0,0,0-1.31,0v1.182a2.4,2.4,0,0,0,0,4.622v11.661a.655.655,0,0,0,1.31,0V166.06a2.4,2.4,0,0,0,0-4.622Zm-7.859,10.479V160.256a.655.655,0,0,0-1.31,0v11.661a2.4,2.4,0,0,0,0,4.622v1.182a.655.655,0,0,0,1.31,0v-1.182a2.4,2.4,0,0,0,0-4.622Z" transform="translate(115.723 157.898)" fill="#004c75"/>
  </g>
</svg>
