<svg xmlns="http://www.w3.org/2000/svg" width="28.365" height="28.365" viewBox="0 0 28.365 28.365">
  <g id="Group_1414" data-name="Group 1414" transform="translate(-6.847 -959.213)">
    <path id="Path_1128" data-name="Path 1128" d="M7.263,959.364A.326.326,0,0,0,7,959.69v9.086a.326.326,0,0,0,0,.051v9.137a.326.326,0,0,0,0,.041v9.1a.326.326,0,0,0,.326.326h27.41a.326.326,0,0,0,.326-.326v-9.076a.326.326,0,0,0,0-.061v-9.137a.324.324,0,0,0,0-.041v-9.1a.326.326,0,0,0-.265-.326.33.33,0,0,0-.061,0H7.324a.32.32,0,0,0-.061,0Zm.387.653h8.484V968.5H7.651v-8.484Zm9.137,0h8.484V968.5H16.787Zm9.137,0h8.484V968.5H25.924ZM7.651,969.154h8.484v8.484H7.651Zm9.137,0h8.484v8.484H16.787Zm9.137,0h8.484v8.484H25.924ZM7.651,978.291h8.484v8.484H7.651Zm9.137,0h8.484v8.484H16.787Zm9.137,0h8.484v8.484H25.924Z" transform="translate(0 0)" fill="#004c75" stroke="#004c75" stroke-width="0.3"/>
  </g>
</svg>
