<svg id="Group_418" data-name="Group 418" xmlns="http://www.w3.org/2000/svg" xmlns:xlink="http://www.w3.org/1999/xlink" width="100.658" height="37.537" viewBox="0 0 100.658 37.537">
  <defs>
    <clipPath id="clip-path">
      <rect id="Rectangle_121" data-name="Rectangle 121" width="100.658" height="37.537" fill="#fff"/>
    </clipPath>
  </defs>
  <g id="Group_212" data-name="Group 212" clip-path="url(#clip-path)">
    <path id="Path_53" data-name="Path 53" d="M29.377,20.2a5.882,5.882,0,0,0-1.471-1.949,5.734,5.734,0,0,0-.63-.471v3.739H23.728V16.474l-7.109-2.095,3.987,8.66a5.826,5.826,0,0,0,3.585,3.118l9.164,2.7Z" transform="translate(0.117 0.101)" fill="#fff"/>
    <path id="Path_54" data-name="Path 54" d="M18.526,12.5a5.887,5.887,0,0,0,2.115,1.168l3.108.915V10.52H19.327V7.179H25.54a5.775,5.775,0,0,0-1.189-1.421A5.872,5.872,0,0,0,22.236,4.59l-9.164-2.7,3.986,8.66A5.921,5.921,0,0,0,18.526,12.5" transform="translate(0.092 0.013)" fill="#fff"/>
    <path id="Path_55" data-name="Path 55" d="M11.279,3.869A5.9,5.9,0,0,0,9.164,2.7L0,0,3.986,8.66a5.946,5.946,0,0,0,1.472,1.949,5.872,5.872,0,0,0,2.115,1.168l9.164,2.7-3.986-8.66a5.9,5.9,0,0,0-1.472-1.949" transform="translate(0 0)" fill="#fff"/>
    <path id="Path_56" data-name="Path 56" d="M20.379,26.934l-3.985-8.66a5.826,5.826,0,0,0-3.585-3.118l-9.164-2.7,3.986,8.66c.092.191.192.379.3.56a5.759,5.759,0,0,0,2.458,2.231,6.239,6.239,0,0,0,.829.326l9.164,2.7Z" transform="translate(0.026 0.087)" fill="#fff"/>
    <path id="Path_57" data-name="Path 57" d="M19.88,7.735H31V9.881H26.654V20.963H24.3V9.881H19.881Z" transform="translate(0.139 0.054)" fill="#fff"/>
    <path id="Path_58" data-name="Path 58" d="M34.186,20.968H31.74l6.209-13.34.264-.54,6.472,13.881h-2.5l-1.166-2.634H35.334Zm1.976-4.5H40.19l-2.014-4.554Z" transform="translate(0.223 0.05)" fill="#fff"/>
    <path id="Path_59" data-name="Path 59" d="M64.95,7.735h8.6V9.881h-6.27v3.345h5.683V15.3H67.279V18.82h6.266v2.145h-8.6Z" transform="translate(0.456 0.054)" fill="#fff"/>
    <path id="Path_60" data-name="Path 60" d="M78.184,7.735h8.6V9.881H80.517v3.345H86.2V15.3H80.517V18.82h6.266v2.145h-8.6Z" transform="translate(0.548 0.054)" fill="#fff"/>
    <path id="Path_61" data-name="Path 61" d="M91.418,7.735h8.6V9.881H93.732v3.5H99.3v2.069h-5.57v5.516H91.416Z" transform="translate(0.641 0.054)" fill="#fff"/>
    <path id="Path_62" data-name="Path 62" d="M62.719,24.085h.032L57.835,19.84a6.57,6.57,0,0,0,2.852-5.747,6.73,6.73,0,0,0-6.851-6.606c-.152,0-.3.01-.454.023a6.87,6.87,0,0,0-6.819,6.92c0,.049,0,.1,0,.148a6.768,6.768,0,0,0,6.93,6.6q.178,0,.356-.018a8.73,8.73,0,0,0,1.873-.29l1.482,1.275a8.032,8.032,0,0,0,5.511,1.937M49.085,14.53a4.549,4.549,0,0,1,4.166-4.9c.074-.005.147-.01.221-.012a4.532,4.532,0,0,1,4.712,4.344q0,.128,0,.257a4.7,4.7,0,0,1-4.389,4.9,4.6,4.6,0,0,1-4.712-4.488c0-.031,0-.062,0-.094" transform="translate(0.327 0.053)" fill="#fff"/>
    <rect id="Rectangle_114" data-name="Rectangle 114" width="1.536" height="1.442" transform="translate(99.091 25.097)" fill="#fff"/>
    <rect id="Rectangle_115" data-name="Rectangle 115" width="1.536" height="1.442" transform="translate(96.676 25.097)" fill="#fff"/>
    <rect id="Rectangle_116" data-name="Rectangle 116" width="1.536" height="1.442" transform="translate(81.175 36.095)" fill="#fff"/>
    <rect id="Rectangle_117" data-name="Rectangle 117" width="1.536" height="1.442" transform="translate(78.762 36.095)" fill="#fff"/>
    <rect id="Rectangle_118" data-name="Rectangle 118" width="1.536" height="1.442" transform="translate(73.872 36.095)" fill="#fff"/>
    <rect id="Rectangle_119" data-name="Rectangle 119" width="1.536" height="1.442" transform="translate(71.458 36.095)" fill="#fff"/>
    <path id="Path_63" data-name="Path 63" d="M98.705,33.1H93.414c.016-.552,0-.983-.017-1.309a4.026,4.026,0,0,0-4.281-3.865,5.615,5.615,0,0,0-.724.046l3.557-3.509-.019.008,1.214-1.2h-.022a5.711,5.711,0,0,0-3.655,1.611l-.93.92-2.886,2.82,1.126,1.057a3.959,3.959,0,0,1,1.961-.473,3.222,3.222,0,0,1,2.206.742,2.52,2.52,0,0,1,.791,1.5A10.689,10.689,0,0,1,91.8,33.09H81.057V27.966H79.476V33.09H73.8V27.966H72.216V33.09H67.668V31.338a5.622,5.622,0,0,0-.145-1.251A3.264,3.264,0,0,0,67,28.922,2.862,2.862,0,0,0,66,28.055a3.452,3.452,0,0,0-1.635-.34,3.466,3.466,0,0,0-2.652,1.131,3.471,3.471,0,0,0-.69,1.148,3.8,3.8,0,0,0-.236,1.309,3.113,3.113,0,0,0,.145.995,4.636,4.636,0,0,0,.344.792h-4.7V28.7l-1.581,1.484V34.4H100.24V27.973H98.7ZM62.742,29.664a2.226,2.226,0,0,1,2.464-.383,1.679,1.679,0,0,1,.6.545,2.1,2.1,0,0,1,.3.748,4.281,4.281,0,0,1,.082.825v1.7H64.449a2.6,2.6,0,0,1-1.594-.484,1.773,1.773,0,0,1-.653-1.523A2.048,2.048,0,0,1,62.742,29.664Z" transform="translate(0.386 0.163)" fill="#fff"/>
    <rect id="Rectangle_120" data-name="Rectangle 120" width="1.543" height="1.448" transform="translate(63.917 25.252)" fill="#fff"/>
  </g>
</svg>
