<svg xmlns="http://www.w3.org/2000/svg" width="36.189" height="36.199" viewBox="0 0 36.189 36.199">
  <g id="Group_1830" data-name="Group 1830" transform="translate(-614.387 -996)" opacity="0.9">
    <path id="Path_1228" data-name="Path 1228" d="M116.03,45.417h-7.837v-6.35a5.463,5.463,0,0,0-.441-2.152V36.91L109,36.191a2.56,2.56,0,1,0,2.315-4.352V22.912a2.562,2.562,0,1,0-2.239-4.423h0l-8.372-4.834,0,0a2.617,2.617,0,0,0,.12-.779,2.566,2.566,0,0,0-5.131,0,2.654,2.654,0,0,0,.12.784h0l-8.37,4.833v0a2.56,2.56,0,1,0-2.235,4.422V32.26a2.564,2.564,0,1,0,2.565,4.077l1.347.778a5.442,5.442,0,0,0-.359,1.953v6.35H80.931a.545.545,0,1,0,0,1.09c10.2,0,3.678,0,35.1,0a.545.545,0,1,0,0-1.09Zm-3.784-11.072a1.473,1.473,0,1,1-1.471-1.476A1.471,1.471,0,0,1,112.246,34.345ZM109.3,20.4a1.479,1.479,0,1,1,0,.016Zm.931,2.516V31.84a2.526,2.526,0,0,0-1.264.686L103.52,28.5a5.342,5.342,0,0,0,.305-1.558,5.287,5.287,0,0,0-.73-2.952l5.545-2.162a2.539,2.539,0,0,0,1.59,1.084ZM100.158,14.6l8.275,4.777a2.546,2.546,0,0,0-.223,1.038,2.4,2.4,0,0,0,.033.4l-5.817,2.271a5.312,5.312,0,0,0-3.617-1.721V15.379a2.5,2.5,0,0,0,1.349-.783Zm2.584,12.3a4.264,4.264,0,1,1-4.265-4.455C101.638,23,102.83,24.8,102.741,26.893ZM98.264,11.4a1.476,1.476,0,1,1-1.476,1.476A1.481,1.481,0,0,1,98.264,11.4ZM88.1,19.375,96.368,14.6h0a2.569,2.569,0,0,0,1.351.779V21.4a5.324,5.324,0,0,0-3.23,1.727l-6.177-2.56a1.46,1.46,0,0,0,.006-.158,2.522,2.522,0,0,0-.223-1.035Zm-3.813,1.037a1.473,1.473,0,1,1,1.476,1.471A1.474,1.474,0,0,1,84.282,20.411ZM85.758,36.24a1.476,1.476,0,1,1,1.416-1.868A1.477,1.477,0,0,1,85.758,36.24Zm1.661-3.421a2.551,2.551,0,0,0-1.117-.561h0V22.912h0a2.573,2.573,0,0,0,1.71-1.291l5.823,2.418a5.256,5.256,0,0,0-.7,2.418,5.4,5.4,0,0,0,.24,1.852Zm19.685,12.6H89.855v-6.35a4.437,4.437,0,0,1,4.434-4.434H96l2.048,2.636a.55.55,0,0,0,.86,0l2.054-2.636h1.71a4.437,4.437,0,0,1,4.434,4.434Zm.131-9.46a5.528,5.528,0,0,0-4.564-2.413h-1.977a.536.536,0,0,0-.43.212l-1.787,2.293L96.7,33.756a.537.537,0,0,0-.43-.212H94.288a5.527,5.527,0,0,0-4.679,2.593l-1.361-.786a2.516,2.516,0,0,0-.169-1.66l5.741-4.352a5.349,5.349,0,0,0,4.417,2.707c.082.006.169.006.251.006a5.349,5.349,0,0,0,4.559-2.554l5.333,3.943v.006a2.44,2.44,0,0,0-.169.9,2.563,2.563,0,0,0,.18.942Z" transform="translate(534 985.691)" fill="#fff"/>
  </g>
</svg>
