<svg xmlns="http://www.w3.org/2000/svg" width="14.602" height="14.601" viewBox="0 0 14.602 14.601">
  <g id="info-icon" transform="translate(-672.814 -589.001)">
    <path id="Path_1166" data-name="Path 1166" d="M371.5,116.143a.715.715,0,1,0,.434.333.715.715,0,0,0-.434-.333Z" transform="translate(310.109 475.434)" fill="#fff"/>
    <path id="Path_1167" data-name="Path 1167" d="M283.625,193.741h-.011c-.675.243-1.537.775-1.347.063l1.306-4.873c.182-.678-.824-.647-1.451-.389a9.132,9.132,0,0,0-2.017,1.408h0a.267.267,0,0,0,.252.456h.011c.675-.243,1.537-.775,1.347-.063l-1.306,4.873c-.182.678.824.647,1.451.389a9.135,9.135,0,0,0,2.017-1.408.267.267,0,0,0-.253-.456Z" transform="translate(398.074 405.268)" fill="#fff"/>
    <path id="Path_1168" data-name="Path 1168" d="M105.3,28a7.3,7.3,0,1,0,3.649.978A7.3,7.3,0,0,0,105.3,28Zm0,13.785a6.494,6.494,0,1,1,4.585-1.9,6.494,6.494,0,0,1-4.585,1.9Z" transform="translate(574.816 561.001)" fill="#fff"/>
  </g>
</svg>
