<svg xmlns="http://www.w3.org/2000/svg" width="17.191" height="17.191" viewBox="0 0 17.191 17.191">
  <g id="Group_1610" data-name="Group 1610" transform="translate(-1081.14 -660.65)">
    <g id="Group_643" data-name="Group 643" transform="translate(1081.49 661)">
      <g id="Group_642" data-name="Group 642">
        <path id="Path_840" data-name="Path 840" d="M21.562,9.649l-6.024,6.024a.907.907,0,0,0,1.283,1.283l6.022-6.022v2.014a.825.825,0,0,0,1.649,0V8.824A.825.825,0,0,0,23.667,8H19.543a.825.825,0,0,0,0,1.649Zm2.93,8.246v4.541a1.951,1.951,0,0,1-1.828,2.055H9.828A1.953,1.953,0,0,1,8,22.436V10.055A1.951,1.951,0,0,1,9.828,8H14.6a.825.825,0,0,1,0,1.649H10.119a.513.513,0,0,0-.47.55V22.292a.518.518,0,0,0,.47.55H22.373a.513.513,0,0,0,.47-.55v-4.4a.825.825,0,0,1,1.649,0Z" transform="translate(-8 -8)" fill="#004c75" stroke="#fff" stroke-width="0.7" fill-rule="evenodd"/>
      </g>
    </g>
  </g>
</svg>
