<svg xmlns="http://www.w3.org/2000/svg" width="70" height="70" viewBox="0 0 70 70">
  <g id="pa-admin" transform="translate(-354 -439)">
    <circle id="Ellipse_296" data-name="Ellipse 296" cx="35" cy="35" r="35" transform="translate(354 439)" fill="#004b75" opacity="0.05"/>
    <g id="Group_1584" data-name="Group 1584" transform="translate(-95.918 -97)">
      <path id="Path_1144" data-name="Path 1144" d="M159.074,72.491a1.871,1.871,0,1,0-.945,3.489,1.912,1.912,0,0,0,.48-.063,1.871,1.871,0,0,0,.466-3.426Zm-.279,2h0a.767.767,0,1,1-.277-1.049h0a.767.767,0,0,1,.276,1.049Zm4.84-1.9h0a.552.552,0,0,0-.061-.388l-1.044-1.827a.552.552,0,0,0-.3-.25,2.825,2.825,0,0,0-1.484-.109l-.341-.2h0a2.848,2.848,0,0,0-.826-1.239.55.55,0,0,0-.367-.141l-2.1-.009h0a.552.552,0,0,0-.365.138,2.851,2.851,0,0,0-.837,1.231l-.342.2a2.852,2.852,0,0,0-1.486.1.55.55,0,0,0-.305.246l-1.06,1.817h0a.553.553,0,0,0-.064.388,2.848,2.848,0,0,0,.648,1.341v.394h0a2.851,2.851,0,0,0-.659,1.334.552.552,0,0,0,.061.388l1.044,1.827a.553.553,0,0,0,.3.25,2.844,2.844,0,0,0,1.485.109l.341.2h0a2.857,2.857,0,0,0,.826,1.239.554.554,0,0,0,.367.142l2.1.009h0a.552.552,0,0,0,.365-.138,2.849,2.849,0,0,0,.837-1.231l.343-.2h0a2.827,2.827,0,0,0,1.485-.1.552.552,0,0,0,.306-.247l1.06-1.817h0a.552.552,0,0,0,.064-.388,2.855,2.855,0,0,0-.648-1.34v-.395a2.851,2.851,0,0,0,.659-1.335Zm-1.386.5h0a.553.553,0,0,0-.376.522l0,1.006h0a.553.553,0,0,0,.371.524,1.922,1.922,0,0,1,.25.542l-.832,1.427a1.808,1.808,0,0,1-.594.049.553.553,0,0,0-.64-.065l-.873.5a.552.552,0,0,0-.268.584,1.912,1.912,0,0,1-.345.487l-1.651-.006a1.884,1.884,0,0,1-.34-.49.553.553,0,0,0-.263-.587l-.869-.507h0a.552.552,0,0,0-.64.06,1.9,1.9,0,0,1-.595-.055l-.819-1.434h0a1.91,1.91,0,0,1,.254-.54.554.554,0,0,0,.376-.522l0-1.006h0a.552.552,0,0,0-.372-.524,1.925,1.925,0,0,1-.25-.542l.832-1.427a1.971,1.971,0,0,1,.595-.05.551.551,0,0,0,.639.065l.874-.5a.552.552,0,0,0,.268-.584,1.927,1.927,0,0,1,.345-.487l1.652.006a1.927,1.927,0,0,1,.34.49.553.553,0,0,0,.263.587l.869.507h0a.553.553,0,0,0,.64-.06,1.916,1.916,0,0,1,.594.055l.819,1.433a1.941,1.941,0,0,1-.254.54Zm-14.54-9.209a6.52,6.52,0,1,0-4.6-1.91,6.511,6.511,0,0,0,4.6,1.91Zm0-11.921a5.415,5.415,0,1,1-3.822,1.586A5.409,5.409,0,0,1,147.709,51.969Zm5.677,16.186a10.473,10.473,0,0,0-5.667-1.3,9.44,9.44,0,0,0-7.159,2.444,10.538,10.538,0,0,0-2.722,6.846.552.552,0,0,1-.545.558h-.007a.552.552,0,0,1-.552-.544,11.487,11.487,0,0,1,3.041-7.636,10.469,10.469,0,0,1,7.944-2.771,11.6,11.6,0,0,1,6.233,1.459.552.552,0,1,1-.567.948Z" transform="translate(335.184 506.135)" fill="#004c75"/>
    </g>
  </g>
</svg>
