<svg xmlns="http://www.w3.org/2000/svg" width="14.826" height="17.473" viewBox="0 0 14.826 17.473">
  <g id="pause" transform="translate(-928.316 -375)">
    <g id="Group_615" data-name="Group 615" transform="translate(928.316 375)">
      <path id="Path_824" data-name="Path 824" d="M77,33.921V19.551A1.559,1.559,0,0,1,78.564,18h2.164a1.541,1.541,0,0,1,1.543,1.551v14.37a1.541,1.541,0,0,1-1.543,1.551H78.564A1.559,1.559,0,0,1,77,33.921Zm9.577,0V19.551A1.541,1.541,0,0,1,88.12,18h2.164a1.541,1.541,0,0,1,1.543,1.551v14.37a1.541,1.541,0,0,1-1.543,1.551H88.12A1.541,1.541,0,0,1,86.577,33.921Zm.878,0V19.551a.669.669,0,0,1,.664-.668h2.164a.669.669,0,0,1,.664.668v14.37a.669.669,0,0,1-.664.668H88.12A.669.669,0,0,1,87.456,33.921Zm-9.556,0V19.551a.669.669,0,0,1,.664-.668h2.164a.669.669,0,0,1,.664.668v14.37a.669.669,0,0,1-.664.668H78.564A.669.669,0,0,1,77.9,33.921Z" transform="translate(-77 -18)" fill="#333" fill-rule="evenodd"/>
    </g>
  </g>
</svg>
