<svg xmlns="http://www.w3.org/2000/svg" width="65.279" height="65.279" viewBox="0 0 65.279 65.279">
  <g id="Group_1768" data-name="Group 1768" transform="translate(-836.37 -308.65)">
    <path id="Path_876" data-name="Path 876" d="M184.041,393.75a1.29,1.29,0,0,0-.913.378l-4.253,4.253-1.67-1.67a1.292,1.292,0,0,0-1.827,1.827l2.583,2.583a1.292,1.292,0,0,0,1.827,0l5.166-5.166a1.292,1.292,0,0,0-.913-2.2Z" transform="translate(668.179 -35.67)" fill="#004c75" stroke="#fff" stroke-width="0.7"/>
    <path id="Path_877" data-name="Path 877" d="M185.428,102.646A21.972,21.972,0,0,0,169.58,82.781a11.624,11.624,0,1,0-12.1,0,21.974,21.974,0,0,0-15.847,19.865A11.623,11.623,0,1,0,153.2,119.505a11.6,11.6,0,0,0,20.665,0,11.619,11.619,0,1,0,11.562-16.859ZM154.492,72.873a9.041,9.041,0,1,1,9.041,9.041A9.052,9.052,0,0,1,154.492,72.873ZM163.533,84.5a19.268,19.268,0,0,1,6.185,1.03l-6.185,6.185-6.185-6.185A19.269,19.269,0,0,1,163.533,84.5Zm-20.665,38.748a9.019,9.019,0,1,1,9.041-9.041,9.052,9.052,0,0,1-9.041,9.041Zm9.659-15.5a11.631,11.631,0,0,0-8.306-5.081A19.376,19.376,0,0,1,154.8,86.6c.027.032.038.072.068.1l7.371,7.371v8.582a11.631,11.631,0,0,0-8.367,5.09Zm11.007,15.5a9.019,9.019,0,1,1,9.041-9.041,9.052,9.052,0,0,1-9.041,9.041Zm9.659-15.5a11.63,11.63,0,0,0-8.367-5.09V94.073L172.2,86.7a1.216,1.216,0,0,0,.068-.1,19.376,19.376,0,0,1,10.582,16.066,11.634,11.634,0,0,0-8.306,5.082Zm11.007,15.5a9.036,9.036,0,1,1,9.041-9.041,9.052,9.052,0,0,1-9.041,9.041Z" transform="translate(705.478 247.751)" fill="#004c75" stroke="#fff" stroke-width="0.7"/>
    <path id="Path_878" data-name="Path 878" d="M463.125,394.125l-4.253,4.253-1.67-1.67a1.292,1.292,0,0,0-1.827,1.827l2.583,2.583a1.292,1.292,0,0,0,1.827,0l5.166-5.166a1.292,1.292,0,0,0-1.827-1.827Z" transform="translate(429.512 -35.666)" fill="#004c75" stroke="#fff" stroke-width="0.7"/>
    <path id="Path_879" data-name="Path 879" d="M324.041,393.75a1.289,1.289,0,0,0-.913.378l-4.253,4.253-1.67-1.67a1.292,1.292,0,0,0-1.827,1.827l2.583,2.583a1.292,1.292,0,0,0,1.827,0l5.166-5.166a1.292,1.292,0,0,0-.913-2.2Z" transform="translate(548.844 -35.67)" fill="#004c75" stroke="#fff" stroke-width="0.7"/>
  </g>
</svg>
