<svg xmlns="http://www.w3.org/2000/svg" width="19.678" height="17.274" viewBox="0 0 19.678 17.274">
  <g id="play" transform="translate(-9.827 -967.183)">
    <path id="Path_607" data-name="Path 607" d="M29.353,975.791a.726.726,0,0,0-.431-.635l-17.906-7.744a.726.726,0,0,0-.953.975l3.486,7.433-3.486,7.433a.726.726,0,0,0,.953.975l17.906-7.743a.726.726,0,0,0,.431-.7Zm-2.556.03-14.6,6.314,2.813-6a.726.726,0,0,0,0-.62l-2.813-6,14.6,6.313Z" transform="translate(0 0)" fill="#333" stroke="#fff" stroke-width="0.3"/>
  </g>
</svg>
