<svg xmlns="http://www.w3.org/2000/svg" width="70" height="70" viewBox="0 0 70 70">
  <g id="rating" transform="translate(-354 -303)">
    <circle id="Ellipse_272" data-name="Ellipse 272" cx="35" cy="35" r="35" transform="translate(354 303)" fill="#004b75" opacity="0.05"/>
    <g id="Group_1418" data-name="Group 1418" transform="translate(351.207 306)">
      <path id="Path_1132" data-name="Path 1132" d="M24.119,35.065a3.192,3.192,0,0,1,3.191,3.185.548.548,0,1,0,1.1,0,3.189,3.189,0,0,1,3.185-3.185.548.548,0,1,0,0-1.1,3.192,3.192,0,0,1-3.185-3.192.548.548,0,1,0-1.1,0,3.2,3.2,0,0,1-3.191,3.192.548.548,0,0,0,0,1.1Zm3.739-2.191a4.319,4.319,0,0,0,1.64,1.642,4.314,4.314,0,0,0-1.64,1.64,4.312,4.312,0,0,0-1.642-1.64A4.317,4.317,0,0,0,27.858,32.874Z" transform="translate(-0.779 -8.858)" fill="#004c75"/>
      <path id="Path_1133" data-name="Path 1133" d="M61.2,36.865a2.631,2.631,0,0,1,2.63,2.625.548.548,0,1,0,1.1,0,2.628,2.628,0,0,1,2.625-2.625.548.548,0,1,0,0-1.1,2.63,2.63,0,0,1-2.625-2.63.548.548,0,1,0-1.1,0,2.633,2.633,0,0,1-2.63,2.63.548.548,0,1,0,0,1.1Zm3.178-1.782a3.754,3.754,0,0,0,1.232,1.233,3.75,3.75,0,0,0-1.232,1.232,3.75,3.75,0,0,0-1.233-1.232A3.753,3.753,0,0,0,64.382,35.083Z" transform="translate(-17.019 -9.892)" fill="#004c75"/>
      <path id="Path_1134" data-name="Path 1134" d="M40.916,16.185a4.541,4.541,0,0,1,4.54,4.531.548.548,0,1,0,1.1,0,4.537,4.537,0,0,1,4.532-4.531.548.548,0,1,0,0-1.1,4.541,4.541,0,0,1-4.532-4.54.548.548,0,1,0-1.1,0,4.545,4.545,0,0,1-4.54,4.54.548.548,0,1,0,0,1.1ZM46,12.974a5.671,5.671,0,0,0,2.659,2.663A5.668,5.668,0,0,0,46,18.3a5.671,5.671,0,0,0-2.663-2.659A5.674,5.674,0,0,0,46,12.974Z" transform="translate(-8.135)" fill="#004c75"/>
      <path id="Path_1135" data-name="Path 1135" d="M53.5,54.863A2.806,2.806,0,0,0,52.341,52.6a2.849,2.849,0,0,0,.341-.281,2.787,2.787,0,0,0,.821-1.986,2.818,2.818,0,0,0-2.815-2.815H39.018A24.206,24.206,0,0,0,40.9,40.391c.01-.111.019-.232.019-.344a3.186,3.186,0,0,0-3.168-3.171h-.021a3.172,3.172,0,0,0-3.157,2.765c-.262,2.127-1.156,7.154-3.778,7.89a3.045,3.045,0,0,1-.426.076.533.533,0,0,0-.289-.094H22.341a.548.548,0,0,0-.548.548V64.236a.548.548,0,0,0,.548.548h7.374a2.941,2.941,0,0,0,2.761,1.952H50.687A2.8,2.8,0,0,0,53.5,63.921a2.805,2.805,0,0,0-1.16-2.265,2.926,2.926,0,0,0,.339-.274,2.8,2.8,0,0,0-.341-4.253,2.864,2.864,0,0,0,.341-.281A2.787,2.787,0,0,0,53.5,54.863ZM29.53,63.687H25.538v-4.3a.548.548,0,1,0-1.1,0v4.3H22.889V48.611H29.53V63.687ZM41.744,49.115a1.673,1.673,0,0,1,1.206-.5h7.738a1.72,1.72,0,0,1,1.718,1.718,1.721,1.721,0,0,1-1.718,1.718H42.95a1.717,1.717,0,0,1-1.206-2.933ZM40.2,64.446c.01.055.028.107.041.161a2.791,2.791,0,0,0,.1.334c.023.059.049.115.076.172a2.8,2.8,0,0,0,.155.287c.032.052.064.1.1.154.02.028.035.059.056.086H32.476a1.851,1.851,0,0,1-1.849-1.849V48.683a4.557,4.557,0,0,0,.451-.092c2.994-.841,4.144-5.258,4.582-8.815a2.075,2.075,0,0,1,2.07-1.8h.014a2.087,2.087,0,0,1,2.078,2.074c0,.08-.008.167-.013.232a22.172,22.172,0,0,1-2.155,7.528.548.548,0,0,0,.485.8h2.59c-.023.03-.039.063-.061.094-.038.053-.072.108-.106.163a2.756,2.756,0,0,0-.151.283c-.027.058-.054.116-.077.176a2.771,2.771,0,0,0-.1.329c-.013.054-.03.106-.04.161a2.839,2.839,0,0,0-.05.513,2.81,2.81,0,0,0,.052.511c.006.03.01.061.017.091a2.791,2.791,0,0,0,.142.457c.012.029.025.057.038.085a2.82,2.82,0,0,0,.231.427l.007.01a2.832,2.832,0,0,0,.3.368c.02.021.04.043.061.064a2.827,2.827,0,0,0,.294.255,2.749,2.749,0,0,0-.3.264c-.006.006-.014.011-.021.017a2.822,2.822,0,0,0-.352.429,2.761,2.761,0,0,0-.143.268c-.037.071-.083.138-.113.213a2.783,2.783,0,0,0-.131.435c-.007.03-.021.058-.027.088a2.851,2.851,0,0,0-.054.553,2.812,2.812,0,0,0,.052.512c.006.03.01.06.016.09a2.789,2.789,0,0,0,.142.458c.012.028.024.055.037.083a2.815,2.815,0,0,0,.232.428l.006.008a2.83,2.83,0,0,0,.3.369c.02.021.04.043.061.064a2.825,2.825,0,0,0,.294.254,2.776,2.776,0,0,0-1.091,2.778c.006.03.01.06.016.089a2.778,2.778,0,0,0,.142.456c.012.029.025.056.037.084a2.811,2.811,0,0,0,.231.426l.009.012a2.823,2.823,0,0,0,.3.367c.019.02.037.04.056.059a2.826,2.826,0,0,0,.292.253,2.912,2.912,0,0,0-.322.277,2.8,2.8,0,0,0-.764,2.516Zm12.21-.525a1.706,1.706,0,0,1-1.718,1.718H42.95a1.716,1.716,0,0,1-1.71-1.718,1.738,1.738,0,0,1,.5-1.219,1.7,1.7,0,0,1,1.21-.5h7.738A1.72,1.72,0,0,1,52.406,63.921Zm0-4.525a1.694,1.694,0,0,1-.5,1.206,1.739,1.739,0,0,1-1.223.5H42.95a1.711,1.711,0,0,1-1.206-2.924,1.673,1.673,0,0,1,1.206-.5h7.738A1.72,1.72,0,0,1,52.406,59.4Zm-.5-3.323a1.714,1.714,0,0,1-1.219.508H42.95a1.718,1.718,0,0,1-1.206-2.933,1.672,1.672,0,0,1,1.206-.5h7.738a1.721,1.721,0,0,1,1.718,1.718A1.7,1.7,0,0,1,51.906,56.073Z" transform="translate(0 -11.769)" fill="#004c75"/>
      <path id="Path_1136" data-name="Path 1136" d="M27.053,72.11a.548.548,0,0,0,.548-.548v-.056a.548.548,0,1,0-1.1,0v.056A.548.548,0,0,0,27.053,72.11Z" transform="translate(-2.064 -26.694)" fill="#004c75"/>
    </g>
  </g>
</svg>
