<svg xmlns="http://www.w3.org/2000/svg" width="38.056" height="36.603" viewBox="0 0 38.056 36.603">
  <g id="Group_1829" data-name="Group 1829" opacity="0.9">
    <g id="Group_1828" data-name="Group 1828" transform="translate(0 0)">
      <path id="Path_1226" data-name="Path 1226" d="M228.58,104.677c.318,1.308,1.435,3.405,3.795,3.4h.081c2.407.049,3.6-2.083,3.941-3.4a2.343,2.343,0,0,0,1.075-1.388,2.528,2.528,0,0,0-.225-1.738l0-.669c.006-.189,0-.364,0-.528a3.739,3.739,0,0,0-2-3.514,4.426,4.426,0,0,0-5.652.922,1.673,1.673,0,0,0-1,.393,3.269,3.269,0,0,0-.852,2.708l0,.688a2.525,2.525,0,0,0-.225,1.738,2.339,2.339,0,0,0,1.071,1.386Zm.137-2.7a.533.533,0,0,0,.081-.281l0-.842a2.5,2.5,0,0,1,.458-1.867.623.623,0,0,1,.469-.157.54.54,0,0,0,.552-.227c.062-.092,1.553-2.248,4.5-.8a2.687,2.687,0,0,1,1.4,2.537c0,.016,0,.032,0,.048.007.144.008.3,0,.484l0,.824a.547.547,0,0,0,.079.277,1.541,1.541,0,0,1,.178,1.059,1.43,1.43,0,0,1-.766.841.535.535,0,0,0-.266.363c-.023.115-.642,2.793-2.951,2.782-2.33.064-2.86-2.66-2.881-2.775a.534.534,0,0,0-.268-.37,1.43,1.43,0,0,1-.766-.841,1.537,1.537,0,0,1,.176-1.056Z" transform="translate(-217.295 -91.25)" fill="#fff"/>
      <path id="Path_1227" data-name="Path 1227" d="M125.521,51.265a.391.391,0,0,0,0-.045.465.465,0,0,0-.022-.054.5.5,0,0,0-.039-.1.478.478,0,0,0-.052-.078.5.5,0,0,0-.076-.075c-.014-.011-.022-.027-.037-.037l-4.716-3.064c-.013-.009-.029-.01-.042-.017a.568.568,0,0,0-.2-.057c-.014,0-.027-.008-.041-.008h-3.31a15.192,15.192,0,1,0-22.967,7.442.507.507,0,0,0,.085.063,15.11,15.11,0,0,0,15.348,1.034l5.806,7.627a.5.5,0,0,0,.145.119c.008.005.01.016.018.021l.01,0a.489.489,0,0,0,.468,0l.01,0c.009,0,.01-.016.018-.021a.5.5,0,0,0,.145-.119l9.346-12.28a.531.531,0,0,0,.026-.054,1.063,1.063,0,0,0,.079-.256.427.427,0,0,0-.009-.043Zm-5.372-2.509,3.14,2.04h-3.017l-2.343-2.04Zm-1.438,2.04h-6.08l2.342-2.04h1.395Zm-7.64,0h-3.018l2.159-1.4a.523.523,0,0,0,.155-.08.549.549,0,0,0,.037-.044l.789-.512h2.22Zm-17.194.645v2.294a14.123,14.123,0,1,1,21.992-6h-4.828a.516.516,0,0,0-.279.082l-.64.416a4.566,4.566,0,0,0-1.009-.794A13.852,13.852,0,0,0,105.42,46a.533.533,0,0,0-.65.519,3.728,3.728,0,0,1-1.44,2.955l-.661.516-.661-.516a3.728,3.728,0,0,1-1.441-2.955.533.533,0,0,0-.65-.519,13.866,13.866,0,0,0-3.691,1.434,4.6,4.6,0,0,0-2.35,4.005Zm8.793,5.382a14.039,14.039,0,0,1-7.728-2.315V51.441a3.533,3.533,0,0,1,1.807-3.076,12.893,12.893,0,0,1,2.8-1.171,4.784,4.784,0,0,0,1.8,3.12l.989.773a.532.532,0,0,0,.656,0l.989-.773a4.78,4.78,0,0,0,1.8-3.12,12.9,12.9,0,0,1,2.8,1.171,3.508,3.508,0,0,1,.623.454l-3.17,2.059c-.015.01-.023.025-.037.037a.5.5,0,0,0-.076.075.512.512,0,0,0-.052.078,189.324,189.324,0,0,1-.061.152c0,.015,0,.03,0,.045s-.009.028-.009.043a.443.443,0,0,0,.012.061.512.512,0,0,0,.02.1.486.486,0,0,0,.047.1.456.456,0,0,0,.026.054L108.8,55.4a14.153,14.153,0,0,1-6.129,1.42Zm4.689-5H110.9l3.164,8.813Zm8.313,10.252-3.68-10.252h7.36Zm1.605-1.439,3.164-8.813h3.544Z" transform="translate(-87.474 -27.496)" fill="#fff"/>
    </g>
  </g>
</svg>
