<svg xmlns="http://www.w3.org/2000/svg" width="41.464" height="36.614" viewBox="0 0 41.464 36.614">
  <g id="Group_1826" data-name="Group 1826" transform="translate(-528.077 -776.235)" opacity="0.9">
    <path id="Path_1221" data-name="Path 1221" d="M174.75,121.7h9.169a2.692,2.692,0,0,1,2.693,2.693v4.585a.606.606,0,0,1-1.213,0v-4.585a1.48,1.48,0,0,0-1.48-1.48H174.75a1.48,1.48,0,0,0-1.48,1.48v4.585a.606.606,0,0,1-1.213,0v-4.585a2.692,2.692,0,0,1,2.693-2.693Zm1.11-4.069-.164-1.777A3.5,3.5,0,0,1,179.153,112h.37a3.5,3.5,0,0,1,3.451,3.857l-.182,1.777a3.5,3.5,0,0,1-6.956,0Zm1.05-1.9.182,1.777a2.286,2.286,0,0,0,4.542,0l.182-1.777a2.286,2.286,0,0,0-2.3-2.517h-.364a2.287,2.287,0,0,0-2.244,2.517ZM172.4,147.87l1.134-6.762-4.918-4.8h0a.606.606,0,0,1,.334-1.037l6.8-.989,3.032-6.161h0a.607.607,0,0,1,1.086,0l3.032,6.161,6.8.989h0a.606.606,0,0,1,.334,1.037l-4.9,4.8,1.165,6.774a.607.607,0,0,1-.9.649l-6.064-3.178-6.064,3.178a.607.607,0,0,1-.879-.637Zm2.207-7.369a.606.606,0,0,1,.176.54l-1.007,5.877,5.27-2.778a.607.607,0,0,1,.564,0l5.276,2.772-1.006-5.9a.606.606,0,0,1,.176-.539l4.245-4.16-5.877-.855a.606.606,0,0,1-.455-.334l-2.638-5.343-2.638,5.343a.606.606,0,0,1-.455.334l-5.9.855Zm24.931-8.672-4.7-.685-2.1-4.245h0a.606.606,0,0,0-1.085,0l-2.1,4.245-4.706.685a.613.613,0,1,0,.176,1.213l5.015-.728h0a.606.606,0,0,0,.455-.334l1.7-3.439,1.692,3.427a.606.606,0,0,0,.455.334l3.8.552-2.735,2.68a.606.606,0,0,0-.176.54l.649,3.784-3.4-1.783a.606.606,0,0,0-.564,1.073l4.488,2.359a.607.607,0,0,0,.879-.637l-.8-4.682,3.4-3.311h0a.607.607,0,0,0-.334-1.037Zm-32.524-4.943a.607.607,0,0,0-1.086,0l-2.1,4.245-4.706.7a.606.606,0,0,0-.333,1.037l3.4,3.311-.8,4.682h0a.607.607,0,0,0,.879.637l4.488-2.359h0a.606.606,0,0,0-.576-1.061l-3.4,1.783.649-3.784h0a.606.606,0,0,0-.176-.54l-2.729-2.68,3.8-.552h0a.606.606,0,0,0,.455-.334l1.7-3.439,1.7,3.439a.606.606,0,0,0,.455.334l5.015.728a.613.613,0,1,0,.176-1.213l-4.7-.685Z" transform="translate(369.469 664.236)" fill="#fff"/>
  </g>
</svg>
