<svg xmlns="http://www.w3.org/2000/svg" width="70" height="70" viewBox="0 0 70 70">
  <g id="traing" transform="translate(-1169 -167)">
    <circle id="Ellipse_271" data-name="Ellipse 271" cx="35" cy="35" r="35" transform="translate(1169 167)" fill="#004b75" opacity="0.05"/>
    <path id="Path_1131" data-name="Path 1131" d="M16.767,28.968h.058a.3.3,0,0,0,.106-.018h0l4.113-1.556v3.3a.3.3,0,0,0,0,.091A2.667,2.667,0,0,0,23.526,32.7l.357.067h.054a.3.3,0,0,0,.106-.018h0L36.15,28.166a.3.3,0,0,0,.2-.285V10.424a.3.3,0,0,0-.409-.285l-.551.209V9.4a.3.3,0,0,0-.409-.285l-.672.263V8.442a.3.3,0,0,0-.409-.272L29.237,9.922v-3.3a.3.3,0,0,0-.409-.269l-.551.209V5.6a.3.3,0,0,0-.412-.285l-.69.26V4.64a.3.3,0,0,0-.409-.285L14.11,9.147h-.021a.3.3,0,0,0-.061.036L14,9.211a.266.266,0,0,0-.076.163.3.3,0,0,0,0,.036V26.9a.3.3,0,0,0,0,.091A2.661,2.661,0,0,0,16.4,28.9Zm6.883,3.139c-1.093-.206-1.677-.481-2-1.459V14.371a2.032,2.032,0,0,0,.163.154l.03.03.03.027h.015a3.417,3.417,0,0,0,1.692.642l.082.015ZM35.756,10.863V27.682l-11.5,4.352V15.212ZM34.8,9.843v.748l-10.866,4.1-.245-.045a5.7,5.7,0,0,1-.965-.242Zm-1.1-.959v.729L22.115,13.99a2.022,2.022,0,0,1-.3-.46l-.064-.133Zm-5.07-1.816v3.087l-7.388,2.791h-.021a.3.3,0,0,0-.061.036l-.03.027a.409.409,0,0,0-.082.2V26.735l-3.919,1.483v-16.8Zm-.956-1.017v.726L16.8,10.893l-.242-.045a5.7,5.7,0,0,1-.95-.239Zm-1.1-.972v.729L14.991,10.191a2.022,2.022,0,0,1-.3-.46L14.624,9.6ZM14.521,26.847V10.573a2.034,2.034,0,0,0,.151.154l.03.03.03.027h.015a3.417,3.417,0,0,0,1.692.642l.082.015V28.306C15.426,28.1,14.851,27.824,14.521,26.847Z" transform="translate(1178.582 183.163)" fill="#004c75" stroke="#004c75" stroke-width="0.3"/>
  </g>
</svg>
