<svg xmlns="http://www.w3.org/2000/svg" width="18.121" height="18.121" viewBox="0 0 18.121 18.121">
  <g id="Group_1808" data-name="Group 1808" transform="translate(-1039.75 -1226.771)">
    <g id="Group_1807" data-name="Group 1807" transform="translate(0 -1)">
      <g id="Group_1806" data-name="Group 1806" transform="translate(1040 1228.021)">
        <path id="Path_840" data-name="Path 840" d="M128.773,64.5a.44.44,0,0,0,.623.623l4.975-4.975V73.185a.44.44,0,0,0,.881,0V60.152l4.975,4.975a.44.44,0,1,0,.623-.623l-5.727-5.727a.44.44,0,0,0-.623,0Zm14.408-7.618h-16.74a.44.44,0,1,1,0-.881h16.74a.44.44,0,0,1,0,.881Z" transform="translate(-126.001 -56.005)" fill="#52c8f8" stroke="#52c8f8" stroke-width="0.5"/>
      </g>
    </g>
  </g>
</svg>
