<svg xmlns="http://www.w3.org/2000/svg" width="17.079" height="10.886" viewBox="0 0 17.079 10.886">
  <g id="view_2_" data-name="view (2)" transform="translate(0 -92.835)">
    <g id="Group_639" data-name="Group 639" transform="translate(0 92.835)">
      <g id="Group_638" data-name="Group 638" transform="translate(0 0)">
        <path id="Path_837" data-name="Path 837" d="M16.971,97.946c-.153-.209-3.788-5.111-8.431-5.111s-8.279,4.9-8.431,5.11a.564.564,0,0,0,0,.665c.152.209,3.788,5.111,8.431,5.111s8.279-4.9,8.431-5.11A.563.563,0,0,0,16.971,97.946Zm-8.431,4.649c-3.42,0-6.382-3.253-7.259-4.317.876-1.065,3.832-4.316,7.259-4.316s6.382,3.253,7.259,4.317C14.923,99.343,11.967,102.595,8.539,102.595Z" transform="translate(0 -92.835)" fill="#004c75"/>
      </g>
    </g>
    <g id="Group_641" data-name="Group 641" transform="translate(5.161 94.9)">
      <g id="Group_640" data-name="Group 640" transform="translate(0 0)">
        <path id="Path_838" data-name="Path 838" d="M158.1,154.725a3.378,3.378,0,1,0,3.378,3.378A3.382,3.382,0,0,0,158.1,154.725Zm0,5.63a2.252,2.252,0,1,1,2.252-2.252A2.255,2.255,0,0,1,158.1,160.355Z" transform="translate(-154.722 -154.725)" fill="#004c75"/>
      </g>
    </g>
  </g>
</svg>
